0
SECTION
2
HEADER
9
$ACADVER
1
AC1009
9
$INSUNITS
70
4
0
ENDSEC
0
SECTION
2
TABLES
0
TABLE
2
LAYER
70
3
0
LAYER
2
0
70
0
62
7
6
CONTINUOUS
0
LAYER
2
墙体
70
0
62
2
6
CONTINUOUS
0
LAYER
2
门窗
70
0
62
4
6
CONTINUOUS
0
ENDTAB
0
ENDSEC
0
SECTION
2
ENTITIES
0
LINE
8
墙体
10
0.0
20
0.0
11
5000.0
21
0.0
0
LINE
8
墙体
10
5000.0
20
0.0
11
5000.0
21
4000.0
0
LINE
8
墙体
10
5000.0
20
4000.0
11
0.0
21
4000.0
0
LINE
8
墙体
10
0.0
20
4000.0
11
0.0
21
0.0
0
LINE
8
墙体
10
0.0
20
1500.0
11
3200.0
21
1500.0
0
LWPOLYLINE
8
墙体
90
4
70
1
10
1000.0
20
1000.0
10
1500.0
20
1000.0
10
1500.0
20
1500.0
10
1000.0
20
1500.0
0
CIRCLE
8
墙体
10
1000.0
20
3000.0
40
200.0
0
CIRCLE
8
墙体
10
4200.0
20
3200.0
40
150.0
0
ARC
8
门窗
10
3200.0
20
1500.0
40
900.0
50
0.0
51
90.0
0
LINE
8
门窗
10
3200.0
20
1500.0
11
4100.0
21
1500.0
0
LINE
8
门窗
10
4100.0
20
1500.0
11
4100.0
21
2400.0
0
TEXT
8
门窗
10
3200.0
20
2500.0
40
250.0
1
客厅
50
0.0
72
1
73
0
0
TEXT
8
门窗
10
4500.0
20
500.0
40
200.0
1
主卧
50
0.0
72
0
73
0
0
ENDSEC
0
EOF
